<?xml version="1.0" encoding="UTF-8" standalone="no"?>
<!DOCTYPE svg PUBLIC "-//W3C//DTD SVG 1.1//EN" "http://www.w3.org/Graphics/SVG/1.1/DTD/svg11.dtd">
<svg width="100%" height="100%" viewBox="0 0 125 125" version="1.1" xmlns="http://www.w3.org/2000/svg" xmlns:xlink="http://www.w3.org/1999/xlink" xml:space="preserve" style="fill-rule:evenodd;clip-rule:evenodd;stroke-linejoin:round;stroke-miterlimit:2;">
    <g transform="matrix(4.16667,0,0,4.16667,-10.4167,-1002.08)">
        <path d="M31.33,246.53L32.5,248.56L23.64,252.47C23.5,251.34 23.03,250.31 21.88,249.43L31.33,246.53ZM21.87,240.5L24.49,241.28L21.61,249.13C20.45,248.37 19.16,247.94 17.71,247.96L21.87,240.5ZM9.92,241.75L12.42,240.8L17.23,248C15.76,248.08 14.37,248.62 13.49,249.42L9.92,241.75ZM2.5,249.44L3.46,247.31L13.12,249.64C12.17,250.6 11.67,251.66 11.67,252.81L2.5,249.44ZM3.99,259.14L2.82,257.1L11.67,253.21C11.81,254.56 12.56,255.55 13.44,256.23L3.99,259.14ZM25.3,270.5L21.24,263.13L16.38,267.04L16.49,250L31.59,262.35L24.6,262.35L28.5,269.33L25.3,270.5Z" />
    </g>
</svg>
