<?xml version="1.0" encoding="UTF-8" standalone="no"?>
<!DOCTYPE svg PUBLIC "-//W3C//DTD SVG 1.1//EN" "http://www.w3.org/Graphics/SVG/1.1/DTD/svg11.dtd">
<svg width="100%" height="100%" viewBox="0 0 30 30" version="1.1" xmlns="http://www.w3.org/2000/svg" xmlns:xlink="http://www.w3.org/1999/xlink" xml:space="preserve" style="fill-rule:evenodd;clip-rule:evenodd;stroke-linejoin:round;stroke-miterlimit:2;">
    <g transform="matrix(1,0,0,1,-5.5,-80.5)">
        <path d="M21.23,99.38C20.82,98.38 20.42,97.23 21.54,95.97C22.21,95.16 23.13,94.56 23.84,93.74C25.02,92.28 25.38,91.31 25.23,89.68C25.03,88.22 24.15,87.31 23.11,86.77C22,86.25 20.73,86.06 19.28,86.24C18.36,86.38 17.33,86.64 16.02,87.37L16.02,90.28C16.88,89.5 17.88,88.72 19.48,88.62C20.34,88.6 21.25,88.75 21.99,89.44C22.64,90.07 22.63,91.06 22.31,91.78C21.94,92.57 21.3,93.13 20.69,93.71C19.84,94.49 19.1,95.27 18.68,96.04C18.14,96.92 18.24,97.93 18.48,99.4L21.23,99.38ZM19.97,104.77C20.96,104.77 21.74,104 21.74,103.08C21.74,101.85 20.68,101.36 19.97,101.36C19.16,101.36 18.19,101.98 18.19,103.08C18.19,104.26 19.26,104.77 19.97,104.77ZM20.44,110.5C12.82,110.5 5.5,104.43 5.5,95.41C5.5,88.14 11.33,80.5 20.55,80.5C27.71,80.5 35.5,86.23 35.5,95.52C35.5,104.8 27.7,110.5 20.44,110.5Z" style="fill:rgb(80,80,80);fill-rule:nonzero;"/>
    </g>
</svg>
