<?xml version="1.0" encoding="UTF-8" standalone="no"?>
<!DOCTYPE svg PUBLIC "-//W3C//DTD SVG 1.1//EN" "http://www.w3.org/Graphics/SVG/1.1/DTD/svg11.dtd">
<svg width="100%" height="100%" viewBox="0 0 123 116" version="1.1" xmlns="http://www.w3.org/2000/svg" xmlns:xlink="http://www.w3.org/1999/xlink" xml:space="preserve" style="fill-rule:evenodd;clip-rule:evenodd;stroke-linejoin:round;stroke-miterlimit:2;">
    <g transform="matrix(4.16667,0,0,4.16667,-11.6429,-669.531)">
        <path d="M5.02,188.5L5.02,175.05L3.82,175.05C2.89,175.02 2.5,174.1 3.04,173.48L16.41,161.18C17.3,160.5 17.66,160.57 18.45,161.11L24.58,166.65L24.58,163.27C24.58,162.9 24.91,162.44 25.47,162.44L28.16,162.44C28.61,162.44 29.03,162.78 29.03,163.3L29.03,170.86L31.88,173.47C32.5,174.16 31.95,175.05 31.1,175.05L29.92,175.05L29.92,188.5L20.58,188.5L20.58,178.41L14.36,178.41L14.36,188.5L5.02,188.5Z"/>
    </g>
</svg>
