<?xml version="1.0" encoding="UTF-8" standalone="no"?>
<!DOCTYPE svg PUBLIC "-//W3C//DTD SVG 1.1//EN" "http://www.w3.org/Graphics/SVG/1.1/DTD/svg11.dtd">
<svg width="100%" height="100%" viewBox="0 0 125 125" version="1.1" xmlns="http://www.w3.org/2000/svg" xmlns:xlink="http://www.w3.org/1999/xlink" xml:space="preserve" style="fill-rule:evenodd;clip-rule:evenodd;stroke-linejoin:round;stroke-miterlimit:2;">
    <g transform="matrix(4.16667,0,0,4.16667,-2.08333,-1668.75)">
        <path d="M27.89,405.24L29.2,405.24L29.2,403.66L27.89,403.66L27.89,405.24ZM25.28,405.24L26.59,405.24L26.59,403.66L25.28,403.66L25.28,405.24ZM23.11,428.93L28.78,428.93C28.93,428.93 29.2,428.81 29.2,428.38L29.2,407.36L23.11,407.36L23.11,428.93ZM16.15,428.93L21.8,428.93L21.8,402.08L16.15,402.08L16.15,428.93ZM9.2,428.93L14.85,428.93L14.85,407.36L9.2,407.36L9.2,428.93ZM7.87,428.93L7.87,407.36L1.83,407.36L1.83,428.39C1.83,428.71 1.97,428.93 2.29,428.93L7.87,428.93ZM2.22,430.5C1.35,430.5 0.5,429.63 0.5,428.42L0.5,404.11C0.5,403.24 1.14,402.08 2.22,402.08L14.85,402.08L14.85,400.5L23.11,400.5L23.11,402.08L28.79,402.08C29.8,402.08 30.5,403.17 30.5,404.11L30.5,428.46C30.5,429.43 29.76,430.5 28.84,430.5L2.22,430.5Z" style="fill:rgb(80,80,80);fill-rule:nonzero;"/>
    </g>
</svg>
