<?xml version="1.0" encoding="UTF-8" standalone="no"?>
<!DOCTYPE svg PUBLIC "-//W3C//DTD SVG 1.1//EN" "http://www.w3.org/Graphics/SVG/1.1/DTD/svg11.dtd">
<svg width="100%" height="100%" viewBox="0 0 491 373" version="1.1" xmlns="http://www.w3.org/2000/svg" xmlns:xlink="http://www.w3.org/1999/xlink" xml:space="preserve" style="fill-rule:evenodd;clip-rule:evenodd;stroke-linejoin:round;stroke-miterlimit:2;">
    <g transform="matrix(1,0,0,1,0,-58.95)">
        <g>
            <path d="M0,121.05L0,369.25C0,403.45 27.9,431.35 62.1,431.35L262.7,431.35C296.9,431.35 324.8,403.45 324.8,369.25L324.8,329.05C324.8,322.25 319.3,316.75 312.5,316.75C305.7,316.75 300.2,322.25 300.2,329.05L300.2,369.25C300.2,389.95 283.3,406.85 262.6,406.85L62.1,406.85C41.4,406.85 24.5,389.95 24.5,369.25L24.5,121.05C24.5,100.35 41.4,83.45 62.1,83.45L262.7,83.45C283.4,83.45 300.3,100.35 300.3,121.05L300.3,161.25C300.3,168.05 305.8,173.55 312.6,173.55C319.4,173.55 324.9,168.05 324.9,161.25L324.9,121.05C324.9,86.85 297,58.95 262.8,58.95L62.1,58.95C27.9,58.95 0,86.75 0,121.05Z" style="fill-rule:nonzero;"/>
            <path d="M385.4,337.65C387.8,340.05 390.9,341.25 394.1,341.25C397.3,341.25 400.4,340.05 402.8,337.65L486.7,253.75C491.5,248.95 491.5,241.25 486.7,236.45L402.8,152.55C398,147.75 390.3,147.75 385.5,152.55C380.7,157.35 380.7,165.05 385.5,169.85L448.5,232.85L218.6,232.85C211.8,232.85 206.3,238.35 206.3,245.15C206.3,251.95 211.8,257.45 218.6,257.45L448.4,257.45L385.4,320.45C380.6,325.15 380.6,332.95 385.4,337.65Z" />
        </g>
    </g>
</svg>
