<?xml version="1.0" encoding="UTF-8" standalone="no"?>
<!DOCTYPE svg PUBLIC "-//W3C//DTD SVG 1.1//EN" "http://www.w3.org/Graphics/SVG/1.1/DTD/svg11.dtd">
<svg width="100%" height="100%" viewBox="0 0 3888 3350" version="1.1" xmlns="http://www.w3.org/2000/svg" xmlns:xlink="http://www.w3.org/1999/xlink" xml:space="preserve" style="fill-rule:evenodd;clip-rule:evenodd;stroke-linejoin:round;stroke-miterlimit:2;">
    <g transform="matrix(4.16667,0,0,4.16667,-487.5,-879.167)">
        <path d="M858.83,211L573.285,211C467.874,211 382.115,297.343 382.115,403.473L382.115,449.764L478.91,449.764L478.91,403.473C478.91,351.079 521.245,308.455 573.285,308.455L858.83,308.455C910.869,308.455 953.205,351.079 953.205,403.473L953.205,822.527C953.205,874.921 910.869,917.545 858.83,917.545L573.285,917.545C521.245,917.545 478.91,874.921 478.91,822.527L478.91,766.491L382.115,766.491L382.115,822.527C382.115,928.656 467.874,1015 573.285,1015L858.83,1015C964.241,1015 1050,928.656 1050,822.527L1050,403.473C1050,297.343 964.241,211 858.83,211Z" style="fill:rgb(255,255,255);fill-rule:nonzero;"/>
    </g>
    <g transform="matrix(4.16667,0,0,4.16667,-487.5,-879.167)">
        <path d="M629,528.712L341.865,528.712L341.865,420.527L117,609.85L341.865,803.036L341.865,683.261L629,683.261L629,528.712Z" style="fill:rgb(255,255,255);fill-rule:nonzero;"/>
    </g>
</svg>
