<?xml version="1.0" encoding="UTF-8" standalone="no"?>
<!DOCTYPE svg PUBLIC "-//W3C//DTD SVG 1.1//EN" "http://www.w3.org/Graphics/SVG/1.1/DTD/svg11.dtd">
<svg width="100%" height="100%" viewBox="0 0 125 167" version="1.1" xmlns="http://www.w3.org/2000/svg" xmlns:xlink="http://www.w3.org/1999/xlink" xml:space="preserve" style="fill-rule:evenodd;clip-rule:evenodd;stroke-linejoin:round;stroke-miterlimit:2;">
    <g transform="matrix(4.16667,0,0,4.16667,-6.25,-1960.42)">
        <path d="M14.57,502.01L7.81,494.21C7.68,494.05 7.64,493.76 7.82,493.59L9.63,491.87C9.82,491.7 10.09,491.73 10.27,491.92L14.51,496.68L22.75,485.49C22.97,485.23 23.28,485.29 23.46,485.42L25.31,486.98C25.58,487.23 25.57,487.48 25.42,487.7L14.57,502.01ZM15.39,475.07L17.61,475.07L17.61,472.79L15.39,472.79L15.39,475.07ZM7.61,480.21L7.61,477.33C7.61,475.5 9.11,473.93 10.85,473.93L12.61,473.93C12.61,471.82 14.36,470.5 15.88,470.5L17.11,470.5C18.89,470.5 20.39,472.07 20.39,473.93L22.1,473.93C23.95,473.93 25.39,475.56 25.39,477.31L25.39,480.21L7.61,480.21ZM3.69,510.5C2.46,510.5 1.5,509.41 1.5,508.24L1.5,477.84C1.5,476.68 2.54,475.64 3.65,475.64L5.94,475.64L5.94,505.36L27.06,505.36L27.06,475.64L29.29,475.64C30.68,475.64 31.5,476.89 31.5,477.89L31.5,508.23C31.5,509.45 30.51,510.5 29.3,510.5L3.69,510.5Z" style="fill:rgb(80,80,80);fill-rule:nonzero;"/>
    </g>
</svg>
