<?xml version="1.0" encoding="UTF-8" standalone="no"?>
<!DOCTYPE svg PUBLIC "-//W3C//DTD SVG 1.1//EN" "http://www.w3.org/Graphics/SVG/1.1/DTD/svg11.dtd">
<svg width="100%" height="100%" viewBox="0 0 171 125" version="1.1" xmlns="http://www.w3.org/2000/svg" xmlns:xlink="http://www.w3.org/1999/xlink" xml:space="preserve" style="fill-rule:evenodd;clip-rule:evenodd;stroke-linejoin:round;stroke-miterlimit:2;">
    <g transform="matrix(4.16667,0,0,4.16667,-10.4167,-1335.42)">
        <path d="M32.99,323.7L34.56,323.7L34.56,322.1L32.99,322.1L32.99,323.7ZM29.83,323.7L31.41,323.7L31.41,322.1L29.83,322.1L29.83,323.7ZM26.68,323.7L28.26,323.7L28.26,322.1L26.68,322.1L26.68,323.7ZM36.14,342.67L36.14,335.98L31.94,340.07L31.94,336.08L37.67,330.29L43.5,336.14L43.5,340.12L39.29,335.98L39.29,342.78C39.29,346.56 35.59,349.84 31.94,350.5L31.94,347.21C34.29,346.51 36.14,344.53 36.14,342.67ZM30.36,347.63L4.55,347.63C3.49,347.63 2.5,346.66 2.5,345.56L2.5,322.66C2.5,321.41 3.5,320.5 4.57,320.5L34.07,320.5C35.17,320.5 36.14,321.44 36.14,322.66L36.14,329.5L34.56,331.1L34.56,325.82L4.08,325.82L4.08,345.51C4.08,345.87 4.37,346.03 4.55,346.03L30.36,346.03L30.36,347.63Z"/>
    </g>
</svg>
