<?xml version="1.0" encoding="UTF-8" standalone="no"?>
<!DOCTYPE svg PUBLIC "-//W3C//DTD SVG 1.1//EN" "http://www.w3.org/Graphics/SVG/1.1/DTD/svg11.dtd">
<svg width="100%" height="100%" viewBox="0 0 144 189" version="1.1" xmlns="http://www.w3.org/2000/svg" xmlns:xlink="http://www.w3.org/1999/xlink" xml:space="preserve" style="fill-rule:evenodd;clip-rule:evenodd;stroke-linejoin:round;stroke-miterlimit:2;">
    <g transform="matrix(4.16667,0,0,4.16667,-553.358,-12200.4)">
        <path d="M154.433,2935.08L157.989,2935.08L157.989,2931.52L160.024,2931.52L160.024,2935.08L163.582,2935.08L163.582,2937.11L160.024,2937.11L160.024,2940.67L157.989,2940.67L157.989,2937.11L154.433,2937.11L154.433,2935.08ZM152.287,2944.1L166.083,2944.1C166.693,2944.1 167.188,2943.6 167.188,2942.99L167.188,2929.19C167.188,2928.58 166.693,2928.09 166.083,2928.09L152.287,2928.09C151.676,2928.09 151.182,2928.58 151.182,2929.19L151.182,2942.99C151.182,2943.6 151.676,2944.1 152.287,2944.1Z" />
        <path d="M141.821,2933.22L141.821,2941.19L133.899,2941.19L141.821,2933.22ZM157.094,2952.43L135.078,2952.43L135.078,2951.01L157.094,2951.01L157.094,2952.43ZM157.094,2956.19L135.078,2956.19L135.078,2954.77L157.094,2954.77L157.094,2956.19ZM157.094,2959.95L135.078,2959.95L135.078,2958.52L157.094,2958.52L157.094,2959.95ZM157.094,2963.82L135.078,2963.82L135.078,2962.4L157.094,2962.4L157.094,2963.82ZM146.905,2967.57L135.078,2967.57L135.078,2966.15L146.905,2966.15L146.905,2967.57ZM133.619,2973.41L158.828,2973.41C159.275,2973.41 159.64,2973.05 159.64,2972.6L159.64,2946.37L151.818,2946.37C150.21,2946.37 148.906,2945.07 148.906,2943.46L148.906,2931.95L141.505,2931.95C141.294,2931.95 141.09,2932.04 140.941,2932.19L133.043,2940.1C132.892,2940.25 132.806,2940.46 132.806,2940.67L132.806,2972.6C132.806,2973.05 133.172,2973.41 133.619,2973.41Z" />
    </g>
</svg>
