<?xml version="1.0" encoding="UTF-8" standalone="no"?>
<!DOCTYPE svg PUBLIC "-//W3C//DTD SVG 1.1//EN" "http://www.w3.org/Graphics/SVG/1.1/DTD/svg11.dtd">
<svg width="100%" height="100%" viewBox="0 0 121 125" version="1.1" xmlns="http://www.w3.org/2000/svg" xmlns:xlink="http://www.w3.org/1999/xlink" xml:space="preserve" style="fill-rule:evenodd;clip-rule:evenodd;stroke-linejoin:round;stroke-miterlimit:2;">
    <g transform="matrix(4.32253,0,0,4.16667,-11.2479,-335.867)">
        <path d="M5.99,93.45L3.1,92.17C2.68,91.92 2.5,91.56 2.66,91.04L3.77,88.22C4.01,87.79 4.32,87.54 4.82,87.76L7.52,89.22C8.38,88.12 9.32,87.03 10.37,86.09L9.19,82.98C9.1,82.61 9.07,82.25 9.56,81.9L12.28,80.68C12.8,80.5 13.09,80.74 13.27,81.07L14.48,84.25C15.7,83.99 16.91,83.87 18.34,84.32L19.55,81.08C19.82,80.64 20.16,80.51 20.57,80.68L23.28,81.9C23.72,82.2 23.76,82.56 23.66,82.95L22.46,86.13C23.51,87.03 24.48,88 25.27,89.1L28.18,87.83C28.7,87.67 29.01,87.88 29.2,88.3L30.34,91.19C30.42,91.62 30.33,91.98 29.94,92.22L26.98,93.5C27.12,94.74 27.11,96.29 26.98,97.66L29.93,98.95C30.33,99.21 30.5,99.56 30.38,100L29.31,102.71C29.1,103.07 28.81,103.25 28.38,103.13L25.39,101.84C24.61,102.99 23.63,104.01 22.53,104.9L23.71,108.02C23.89,108.51 23.65,108.93 23.38,109.09L20.51,110.37C20.13,110.44 19.78,110.41 19.61,109.9L18.41,106.7C17.31,107.03 15.95,107.12 14.57,106.73L13.37,109.88C13.18,110.21 12.96,110.5 12.43,110.36L9.63,109.12C9.24,108.81 9.06,108.44 9.31,107.93L10.64,105.1C9.46,104.15 8.49,103.14 7.72,102.07L4.87,103.32C4.42,103.49 4.05,103.37 3.8,102.93L2.66,100.01C2.54,99.63 2.63,99.17 3.05,98.95L6,97.58C5.88,96.2 5.87,94.83 5.99,93.45ZM9.17,95.44C9.17,100.31 12.91,103.33 16.56,103.33C20.53,103.33 23.8,99.72 23.8,95.52C23.8,91.02 20.28,87.64 16.58,87.64C12.96,87.64 9.17,90.56 9.17,95.44Z" />
    </g>
</svg>
