<?xml version="1.0" encoding="UTF-8" standalone="no"?>
<!DOCTYPE svg PUBLIC "-//W3C//DTD SVG 1.1//EN" "http://www.w3.org/Graphics/SVG/1.1/DTD/svg11.dtd">
<svg width="100%" height="100%" viewBox="0 0 125 167" version="1.1" xmlns="http://www.w3.org/2000/svg" xmlns:xlink="http://www.w3.org/1999/xlink" xml:space="preserve" style="fill-rule:evenodd;clip-rule:evenodd;stroke-linejoin:round;stroke-miterlimit:2;">
    <g transform="matrix(4.16667,0,0,4.16667,-10.4167,-2293.75)">
        <path d="M8.31,565.34C8.31,564.42 8.9,563.23 9.89,563.23C10.76,563.23 11.45,564.23 11.45,565.34C11.45,566.59 10.69,567.47 9.89,567.47C9.11,567.47 8.31,566.6 8.31,565.34ZM13.69,566.27L13.69,564.45L26.67,564.45L26.67,566.27L13.69,566.27ZM8.31,572.61C8.31,571.69 8.9,570.5 9.89,570.5C10.76,570.5 11.45,571.51 11.45,572.61C11.45,573.87 10.69,574.75 9.89,574.75C9.11,574.75 8.31,573.87 8.31,572.61ZM9.89,574.14C10.42,574.14 11,573.61 11,572.61C11,571.79 10.5,571.11 9.89,571.11C9.23,571.11 8.76,571.81 8.76,572.61C8.76,573.55 9.31,574.14 9.89,574.14ZM13.69,573.54L13.69,571.72L26.67,571.72L26.67,573.54L13.69,573.54ZM29.81,554.14L31.16,554.14L31.16,552.32L29.81,552.32L29.81,554.14ZM27.13,554.14L28.47,554.14L28.47,552.32L27.13,552.32L27.13,554.14ZM24.44,554.14L25.78,554.14L25.78,552.32L24.44,552.32L24.44,554.14ZM8.31,579.88C8.31,578.96 8.9,577.78 9.89,577.78C10.76,577.78 11.45,578.78 11.45,579.88C11.45,581.13 10.69,582.01 9.89,582.01C9.11,582.01 8.31,581.15 8.31,579.88ZM9.89,581.42C10.42,581.42 11,580.88 11,579.88C11,579.06 10.5,578.38 9.89,578.38C9.23,578.38 8.76,579.08 8.76,579.88C8.76,580.83 9.31,581.42 9.89,581.42ZM13.69,580.81L13.69,579L26.67,579L26.67,580.81L13.69,580.81ZM30.72,588.69C31.01,588.69 31.16,588.39 31.16,588.1L31.16,556.56L3.84,556.56L3.84,588.1C3.84,588.46 4.04,588.69 4.26,588.69L30.72,588.69ZM4.24,590.5C3.38,590.5 2.5,589.47 2.5,588.16L2.5,552.9C2.51,551.45 3.43,550.5 4.24,550.5L30.74,550.5C31.68,550.5 32.5,551.59 32.5,552.87L32.5,588.11C32.5,589.53 31.57,590.5 30.76,590.5L4.24,590.5Z" style="fill:rgb(80,80,80);fill-rule:nonzero;"/>
    </g>
</svg>
