<?xml version="1.0" encoding="UTF-8" standalone="no"?>
<!DOCTYPE svg PUBLIC "-//W3C//DTD SVG 1.1//EN" "http://www.w3.org/Graphics/SVG/1.1/DTD/svg11.dtd">
<svg width="100%" height="100%" viewBox="0 0 47 351" version="1.1" xmlns="http://www.w3.org/2000/svg" xmlns:xlink="http://www.w3.org/1999/xlink" xml:space="preserve" style="fill-rule:evenodd;clip-rule:evenodd;stroke-linejoin:round;stroke-miterlimit:2;">
    <g>
        <rect x="5.5" y="80.5" width="30" height="30" style="fill:none;"/>
        <path d="M21.23,99.38C20.82,98.38 20.42,97.23 21.54,95.97C22.21,95.16 23.13,94.56 23.84,93.74C25.02,92.28 25.38,91.31 25.23,89.68C25.03,88.22 24.15,87.31 23.11,86.77C22,86.25 20.73,86.06 19.28,86.24C18.36,86.38 17.33,86.64 16.02,87.37L16.02,90.28C16.88,89.5 17.88,88.72 19.48,88.62C20.34,88.6 21.25,88.75 21.99,89.44C22.64,90.07 22.63,91.06 22.31,91.78C21.94,92.57 21.3,93.13 20.69,93.71C19.84,94.49 19.1,95.27 18.68,96.04C18.14,96.92 18.24,97.93 18.48,99.4L21.23,99.38ZM19.97,104.77C20.96,104.77 21.74,104 21.74,103.08C21.74,101.85 20.68,101.36 19.97,101.36C19.16,101.36 18.19,101.98 18.19,103.08C18.19,104.26 19.26,104.77 19.97,104.77ZM20.44,110.5C12.82,110.5 5.5,104.43 5.5,95.41C5.5,88.14 11.33,80.5 20.55,80.5C27.71,80.5 35.5,86.23 35.5,95.52C35.5,104.8 27.7,110.5 20.44,110.5Z" />
        <path d="M20.5,240.5L24.41,251.93L35.5,251.93L26.63,258.79L30.28,270.5L20.5,263.36L10.72,270.5L14.5,258.79L5.5,251.93L16.59,251.93L20.5,240.5Z" />
        <rect x="0.5" y="160.5" width="40" height="30" style="fill:none;"/>
        <path d="M23.6,171.47L23.6,169.74L34.87,169.74L34.87,171.47L23.6,171.47ZM23.6,176.66L23.6,174.93L34.87,174.93L34.87,176.66L23.6,176.66ZM23.6,181.85L23.6,180.12L34.87,180.12L34.87,181.85L23.6,181.85ZM13.77,175.15C11.78,175.15 10.02,173.31 10.02,171C10.02,168.66 11.65,166.73 13.77,166.73C15.94,166.73 17.45,168.85 17.45,170.93C17.45,173.58 15.46,175.15 13.77,175.15ZM6.07,184.15C6.22,182.41 6.39,180.11 6.82,178.28C7.07,177.36 7.45,176.92 7.93,176.58L9.28,175.75C9.66,175.55 10.03,175.28 10.51,175.58C12.09,176.86 14.41,177.59 16.9,175.61C17.24,175.35 17.51,175.44 17.78,175.58L19.37,176.5C19.97,176.86 20.3,177.38 20.5,177.97C20.91,179.08 21.16,182.12 21.28,184.15L6.07,184.15ZM2.19,188.77L38.81,188.77L38.81,162.23L2.19,162.23L2.19,188.77ZM0.5,190.5L0.5,160.5L40.5,160.5L40.5,190.5L0.5,190.5Z" />
        <rect x="5.5" y="0.5" width="30" height="30" style="fill:none;"/>
        <path d="M22.33,22.02L20.78,21.38C20.55,21.25 20.46,21.08 20.55,20.82L21.14,19.42C21.27,19.2 21.44,19.08 21.7,19.18L23.16,19.91C23.62,19.37 24.12,18.83 24.69,18.36L24.05,16.81C24,16.63 23.98,16.45 24.25,16.27L25.71,15.66C25.99,15.57 26.15,15.69 26.25,15.86L26.9,17.44C27.55,17.31 28.2,17.25 28.96,17.47L29.62,15.87C29.76,15.64 29.95,15.58 30.16,15.66L31.62,16.28C31.86,16.42 31.88,16.6 31.82,16.79L31.18,18.38C31.74,18.83 32.27,19.3 32.69,19.85L34.25,19.22C34.53,19.14 34.7,19.25 34.8,19.46L35.41,20.9C35.45,21.11 35.41,21.28 35.2,21.41L33.61,22.04C33.68,22.66 33.68,23.43 33.6,24.11L35.2,24.75C35.41,24.88 35.5,25.05 35.43,25.28L34.86,26.63C34.74,26.8 34.59,26.89 34.36,26.83L32.76,26.19C32.33,26.76 31.81,27.27 31.22,27.71L31.85,29.26C31.95,29.51 31.82,29.72 31.67,29.8L30.13,30.43C29.92,30.47 29.74,30.45 29.65,30.2L29,28.61C28.42,28.77 27.68,28.81 26.94,28.63L26.3,30.19C26.19,30.35 26.08,30.5 25.79,30.43L24.29,29.81C24.08,29.66 23.98,29.47 24.12,29.22L24.83,27.81C24.2,27.34 23.67,26.83 23.26,26.3L21.73,26.92C21.49,27.02 21.3,26.96 21.15,26.73L20.54,25.28C20.48,25.09 20.53,24.86 20.76,24.75L22.34,24.07C22.28,23.39 22.27,22.7 22.33,22.02ZM24.04,23.01C24.04,25.43 26.05,26.93 28.01,26.93C30.14,26.93 31.9,25.14 31.9,23.05C31.9,20.8 30.01,19.13 28.02,19.13C26.08,19.13 24.04,20.58 24.04,23.01ZM17.22,13.11C14.15,13.11 11.41,10.56 11.41,6.65C11.41,3.61 13.73,0.5 17.11,0.5C20.42,0.5 22.85,3.51 22.85,6.79C22.85,10.59 19.99,13.11 17.22,13.11ZM5.5,25.83C5.76,23.04 6.12,19.22 6.8,17.29C7.11,16.41 7.56,15.78 8.29,15.26C8.76,14.91 10.44,13.98 10.75,13.83C11.29,13.55 11.85,13.41 12.33,13.83C15.18,16.34 19.13,16.27 22.02,13.84C22.36,13.5 22.89,13.59 23.24,13.73C23.6,13.86 24.45,14.34 25.11,14.71L23.81,15.26C22.97,15.68 22.76,16.59 23.06,17.28L23.39,18.03L22.97,18.45L22.14,18.09C21.45,17.83 20.6,18.09 20.21,18.88L19.56,20.42C19.27,21.25 19.68,22.06 20.34,22.35L21.21,22.73L21.21,23.33L20.36,23.7C19.53,24.09 19.3,24.99 19.57,25.67L19.64,25.83L5.5,25.83Z" />
        <rect x="5.5" y="310.5" width="40" height="40" style="fill:none;"/>
        <path d="M33.95,348.32C35.19,348.32 36.07,347.65 36.07,346.87C36.07,346.07 35.15,345.43 33.95,345.43C32.93,345.43 31.9,346 31.9,346.9C31.9,347.6 32.76,348.32 33.95,348.32ZM28.68,325.22C25.22,323.83 22.37,321.14 22.37,318.24C22.37,314.29 25.51,311.82 28.59,310.77L28.59,317.43L33.98,319.88L39.37,317.43L39.37,310.77C42.88,312.05 45.5,314.69 45.5,318.03C45.4,321.43 42.5,323.93 39.22,325.22L39.22,346.9C39.22,348.91 36.63,350.5 33.93,350.5C31.3,350.5 28.68,349.06 28.68,346.92L28.68,325.22ZM7.01,350.49C6.29,350.49 5.5,350.04 5.5,349.45L5.5,335.03C5.5,334.42 6.36,333.96 7.1,333.96L8.58,333.96L8.58,319.02L7.81,315.31L7.81,310.5L12.43,310.5L12.43,315.31L11.66,319.02L11.66,333.96L13.22,333.96C14.07,333.96 14.74,334.48 14.74,334.99L14.74,349.42C14.74,349.94 14.14,350.49 13.23,350.49L7.01,350.49Z" />
    </g>
</svg>
