<?xml version="1.0" encoding="UTF-8" standalone="no"?>
<!DOCTYPE svg PUBLIC "-//W3C//DTD SVG 1.1//EN" "http://www.w3.org/Graphics/SVG/1.1/DTD/svg11.dtd">
<svg width="100%" height="55%" viewBox="0 0 642 145" version="1.1" xmlns="http://www.w3.org/2000/svg" xmlns:xlink="http://www.w3.org/1999/xlink" xml:space="preserve" style="fill-rule:evenodd;clip-rule:evenodd;stroke-linejoin:round;stroke-miterlimit:2;">
    <g transform="matrix(11.9221,0,0,11.9221,-2840.6,-2852.96)">
        <path d="M242.037,241.598L239.295,241.598C238.99,241.598 238.742,241.504 238.551,241.317C238.359,241.129 238.264,240.879 238.264,240.567C238.264,240.247 238.355,239.995 238.539,239.811C238.723,239.627 238.975,239.536 239.295,239.536L246.912,239.536C247.217,239.536 247.465,239.629 247.656,239.817C247.848,240.004 247.943,240.254 247.943,240.567C247.943,240.887 247.852,241.139 247.668,241.323C247.484,241.506 247.232,241.598 246.912,241.598L244.17,241.598L244.17,250.317C244.17,250.637 244.072,250.895 243.877,251.09C243.682,251.286 243.424,251.383 243.103,251.383C242.783,251.383 242.525,251.286 242.33,251.09C242.135,250.895 242.037,250.637 242.037,250.317L242.037,241.598ZM239.353,240.239C239.119,240.239 239.002,240.356 239.002,240.59C239.002,240.825 239.119,240.942 239.353,240.942L246.912,240.942C247.139,240.942 247.252,240.825 247.252,240.59C247.252,240.356 247.139,240.239 246.912,240.239L239.353,240.239Z"/>
    </g>
    <g transform="matrix(11.9221,0,0,11.9221,-2456.19,-2855.76)">
        <path d="M247.662,244.774C247.967,244.774 248.213,244.868 248.4,245.055C248.588,245.243 248.682,245.489 248.682,245.793L248.682,246.262C248.682,247.364 248.447,248.315 247.978,249.116C247.51,249.917 246.883,250.514 246.098,250.909C245.312,251.303 244.412,251.5 243.396,251.5C241.654,251.5 240.24,250.936 239.154,249.807C238.068,248.678 237.525,247.247 237.525,245.512C237.525,243.754 238.076,242.319 239.178,241.206C240.279,240.092 241.717,239.536 243.49,239.536C244.1,239.536 244.713,239.614 245.33,239.77C245.947,239.926 246.459,240.125 246.865,240.368C247.342,240.649 247.58,240.997 247.58,241.411C247.58,241.692 247.49,241.93 247.311,242.125C247.131,242.321 246.904,242.418 246.631,242.418C246.381,242.418 246.029,242.293 245.576,242.043C245.037,241.731 244.342,241.575 243.49,241.575C242.334,241.575 241.414,241.936 240.73,242.659C240.047,243.381 239.705,244.34 239.705,245.536C239.705,246.715 240.035,247.67 240.695,248.401C241.355,249.131 242.248,249.497 243.373,249.497C244.256,249.497 244.988,249.278 245.57,248.84C246.152,248.403 246.482,247.731 246.561,246.825L244.053,246.825C243.748,246.825 243.502,246.731 243.314,246.543C243.127,246.356 243.033,246.11 243.033,245.805C243.033,245.5 243.127,245.254 243.314,245.067C243.502,244.879 243.748,244.786 244.053,244.786L247.662,244.786L247.662,244.774ZM245.717,241.329C245.811,241.375 245.908,241.426 246.01,241.481C246.111,241.536 246.187,241.579 246.238,241.61C246.289,241.641 246.346,241.667 246.408,241.686C246.471,241.706 246.533,241.715 246.596,241.715C246.682,241.715 246.754,241.682 246.812,241.616C246.871,241.549 246.9,241.461 246.9,241.352C246.9,241.227 246.844,241.122 246.73,241.036C246.617,240.95 246.408,240.836 246.103,240.696C245.338,240.36 244.471,240.192 243.502,240.192C241.939,240.192 240.674,240.692 239.705,241.692C238.736,242.692 238.252,243.961 238.252,245.5C238.252,245.625 238.289,245.723 238.363,245.793C238.437,245.864 238.525,245.899 238.627,245.899C238.736,245.899 238.828,245.864 238.902,245.793C238.977,245.723 239.014,245.625 239.014,245.5C239.014,244.125 239.418,243.008 240.227,242.149C241.035,241.29 242.127,240.86 243.502,240.86C244.322,240.883 245.061,241.04 245.717,241.329Z"/>
    </g>
    <g transform="matrix(11.9221,0,0,11.9221,-2462.29,-2855.76)">
        <path d="M255.08,251.5C254.603,251.5 254.268,251.27 254.072,250.809L249.994,241.024C249.932,240.875 249.9,240.715 249.9,240.543C249.9,240.262 249.998,240.024 250.193,239.829C250.389,239.633 250.646,239.536 250.967,239.536C251.459,239.536 251.799,239.762 251.986,240.215L255.162,247.879L258.303,240.215C258.49,239.762 258.814,239.536 259.275,239.536C259.603,239.536 259.857,239.633 260.037,239.829C260.217,240.024 260.307,240.262 260.307,240.543C260.307,240.692 260.275,240.852 260.213,241.024L256.135,250.809C255.924,251.27 255.572,251.5 255.08,251.5ZM259.557,240.766C259.588,240.68 259.603,240.602 259.603,240.532C259.603,240.336 259.502,240.239 259.299,240.239C259.135,240.239 259.01,240.34 258.924,240.543L254.916,250.258C254.885,250.344 254.869,250.43 254.869,250.516C254.869,250.711 254.971,250.809 255.174,250.809C255.338,250.809 255.463,250.708 255.549,250.504L259.557,240.766Z"/>
    </g>
    <g transform="matrix(0.808165,0,0,0.808165,-130.33,-438.108)">
        <path d="M331.672,619.865C339.875,619.865 346.75,622.287 352.297,627.131C352.688,624.865 353.645,623.088 355.168,621.799C356.692,620.51 358.664,619.865 361.086,619.865C363.742,619.865 365.852,620.646 367.414,622.209C368.977,623.771 369.758,625.881 369.758,628.537L369.758,683.146C369.758,684.787 370.188,686.115 371.047,687.131C371.906,688.146 373.156,688.654 374.797,688.654C378.859,688.654 382.141,685.803 384.641,680.1C387.141,674.396 388.391,667.17 388.391,658.42C388.391,642.717 383.254,629.728 372.981,619.455C362.707,609.182 349.719,604.045 334.016,604.045C318.313,604.045 305.344,609.182 295.109,619.455C284.875,629.728 279.758,642.717 279.758,658.42C279.758,674.123 284.875,687.092 295.109,697.326C305.344,707.56 318.313,712.678 334.016,712.678C341.359,712.678 348.469,711.467 355.344,709.045C355.969,708.732 356.555,708.576 357.102,708.576C357.883,708.576 358.508,708.83 358.977,709.338C359.445,709.846 359.68,710.451 359.68,711.154C359.68,712.639 358.938,713.654 357.453,714.201C350.109,716.857 342.297,718.185 334.016,718.185C316.672,718.185 302.317,712.521 290.949,701.193C279.582,689.865 273.899,675.607 273.899,658.42C273.899,641.232 279.582,626.955 290.949,615.588C302.317,604.221 316.672,598.537 334.016,598.537C351.359,598.537 365.734,604.221 377.141,615.588C388.547,626.955 394.25,641.232 394.25,658.42C394.25,670.06 392.219,679.377 388.156,686.369C384.094,693.361 378.469,696.857 371.281,696.857C363.547,696.857 358.039,693.615 354.758,687.131C348.508,693.615 340.774,696.857 331.555,696.857C320.461,696.857 311.262,693.225 303.957,685.959C296.652,678.693 293,669.514 293,658.42C293,647.326 296.672,638.127 304.016,630.822C311.359,623.518 320.578,619.865 331.672,619.865ZM331.672,631.115C333.625,631.115 334.602,630.139 334.602,628.185C334.602,626.31 333.625,625.373 331.672,625.373C322.297,625.373 314.504,628.518 308.293,634.807C302.082,641.096 298.977,648.967 298.977,658.42C298.977,667.873 302.063,675.725 308.234,681.975C314.406,688.225 322.219,691.35 331.672,691.35C333.625,691.35 334.602,690.412 334.602,688.537C334.602,686.584 333.625,685.607 331.672,685.607C323.938,685.607 317.609,683.049 312.688,677.932C307.766,672.814 305.305,666.232 305.305,658.185C305.305,650.295 307.766,643.81 312.688,638.732C317.609,633.654 323.938,631.115 331.672,631.115ZM316.789,674.357C320.695,678.42 325.656,680.451 331.672,680.451C337.688,680.451 342.609,678.4 346.438,674.299C350.266,670.197 352.18,664.943 352.18,658.537C352.18,652.131 350.266,646.877 346.438,642.775C342.609,638.674 337.688,636.623 331.672,636.623C325.656,636.623 320.715,638.674 316.848,642.775C312.981,646.877 311.047,652.131 311.047,658.537C311.047,664.943 312.961,670.217 316.789,674.357Z"/>
    </g>
    <g transform="matrix(0.808165,0,0,0.808165,-130.33,-438.108)">
        <path d="M453.547,618.928C440.5,618.928 433.977,622.99 433.977,631.115C433.977,635.021 435.617,638.166 438.899,640.549C442.18,642.932 447.766,645.021 455.656,646.818L465.734,649.162C475.813,651.428 483.43,655.51 488.586,661.408C493.742,667.307 496.32,674.514 496.32,683.029C496.32,693.732 492.395,702.053 484.543,707.99C476.692,713.928 466.047,716.896 452.609,716.896C438.859,716.896 427.531,713.967 418.625,708.107C413.859,704.982 411.477,701.467 411.477,697.56C411.477,694.826 412.356,692.56 414.113,690.764C415.871,688.967 418.078,688.068 420.734,688.068C422.922,688.068 425.852,689.006 429.524,690.881C436.867,694.865 444.875,696.857 453.547,696.857C468.313,696.857 475.695,692.326 475.695,683.264C475.695,675.998 469.875,671.037 458.234,668.381L448.156,666.037C435.969,663.225 427.16,659.006 421.731,653.381C416.301,647.756 413.586,640.451 413.586,631.467C413.586,621.154 417.297,613.088 424.719,607.268C432.141,601.447 441.984,598.537 454.25,598.537C466.047,598.537 476.516,601.037 485.656,606.037C490.266,608.537 492.57,612.014 492.57,616.467C492.57,619.357 491.574,621.799 489.582,623.791C487.59,625.783 485.188,626.779 482.375,626.779C480.656,626.779 478.82,626.389 476.867,625.607C476.399,625.451 474.875,624.807 472.297,623.674C469.719,622.541 467.766,621.74 466.438,621.271C465.109,620.803 463.195,620.295 460.695,619.748C458.195,619.201 455.813,618.928 453.547,618.928ZM481.672,619.982C482.688,619.982 483.527,619.67 484.192,619.045C484.856,618.42 485.188,617.56 485.188,616.467C485.188,615.06 484.484,613.967 483.078,613.185C479.797,610.92 475.578,609.064 470.422,607.619C465.266,606.174 459.836,605.451 454.133,605.451C443.742,605.451 435.5,607.756 429.406,612.365C423.313,616.975 420.266,623.459 420.266,631.818C420.266,639.084 422.629,644.963 427.356,649.455C432.082,653.947 439.719,657.365 450.266,659.709L455.305,660.881C457.024,661.35 458.352,661.193 459.289,660.412C460.227,659.631 460.695,658.654 460.695,657.482C460.695,655.607 459.524,654.357 457.18,653.732L452.844,652.795C443.781,650.764 437.277,648.029 433.332,644.592C429.387,641.154 427.414,636.662 427.414,631.115C427.414,618.537 436.164,612.248 453.664,612.248C462.57,612.248 471.203,614.67 479.563,619.514C480.344,619.826 481.047,619.982 481.672,619.982Z"/>
    </g>
    <g transform="matrix(0.808165,0,0,0.808165,-130.33,-438.108)">
        <path d="M532.766,609.435C532.766,606.232 533.742,603.615 535.695,601.584C537.649,599.553 540.227,598.537 543.43,598.537C546.633,598.537 549.211,599.514 551.164,601.467C553.117,603.42 554.094,606.076 554.094,609.435L554.094,640.842L593.703,601.701C595.969,599.67 598.547,598.654 601.438,598.654C604.484,598.654 606.867,599.533 608.586,601.291C610.305,603.049 611.164,605.334 611.164,608.146C611.164,611.115 609.641,614.123 606.594,617.17L565.227,657.248L611.164,698.967C613.899,701.389 615.266,704.475 615.266,708.225C615.266,711.115 614.328,713.518 612.453,715.432C610.578,717.346 607.961,718.303 604.602,718.303C601.711,718.303 599.172,717.326 596.984,715.373L553.977,675.295L553.977,707.639C553.977,710.842 552.981,713.42 550.988,715.373C548.996,717.326 546.399,718.303 543.195,718.303C539.992,718.303 537.414,717.326 535.461,715.373C533.508,713.42 532.531,710.842 532.531,707.639L532.531,609.435L532.766,609.435ZM556.203,656.896L602.375,612.365C603.859,610.959 604.602,609.709 604.602,608.615C604.602,606.428 603.547,605.334 601.438,605.334C600.5,605.334 599.445,605.764 598.274,606.623L550.109,654.318C549.25,655.178 548.82,656.271 548.82,657.6C548.82,659.006 549.25,660.1 550.109,660.881L602.375,709.865C603.234,710.725 604.25,711.154 605.422,711.154C607.531,711.154 608.586,710.021 608.586,707.756C608.586,706.74 607.844,705.529 606.359,704.123L555.969,658.303C555.422,658.068 555.5,657.6 556.203,656.896Z"/>
    </g>
</svg>
