<?xml version="1.0" encoding="UTF-8" standalone="no"?>
<!DOCTYPE svg PUBLIC "-//W3C//DTD SVG 1.1//EN" "http://www.w3.org/Graphics/SVG/1.1/DTD/svg11.dtd">
<svg width="100%" height="100%" viewBox="0 0 892 202" version="1.1" xmlns="http://www.w3.org/2000/svg" xmlns:xlink="http://www.w3.org/1999/xlink" xml:space="preserve" style="fill-rule:evenodd;clip-rule:evenodd;stroke-linejoin:round;stroke-miterlimit:2;">
    <g transform="matrix(16.8194,0,0,16.8194,-4007.46,-4028.86)">
        <path d="M242.037,241.598L239.295,241.598C238.99,241.598 238.742,241.504 238.551,241.317C238.359,241.129 238.264,240.879 238.264,240.567C238.264,240.247 238.355,239.995 238.539,239.811C238.723,239.627 238.975,239.536 239.295,239.536L246.912,239.536C247.217,239.536 247.465,239.629 247.656,239.817C247.848,240.004 247.943,240.254 247.943,240.567C247.943,240.887 247.852,241.139 247.668,241.323C247.484,241.506 247.232,241.598 246.912,241.598L244.17,241.598L244.17,250.317C244.17,250.637 244.072,250.895 243.877,251.09C243.682,251.286 243.424,251.383 243.103,251.383C242.783,251.383 242.525,251.286 242.33,251.09C242.135,250.895 242.037,250.637 242.037,250.317L242.037,241.598ZM239.353,240.239C239.119,240.239 239.002,240.356 239.002,240.59C239.002,240.825 239.119,240.942 239.353,240.942L246.912,240.942C247.139,240.942 247.252,240.825 247.252,240.59C247.252,240.356 247.139,240.239 246.912,240.239L239.353,240.239Z" style="fill-rule:nonzero;"/>
        <path d="M278.646,244.774C278.951,244.774 279.197,244.868 279.385,245.055C279.572,245.243 279.666,245.489 279.666,245.793L279.666,246.262C279.666,247.364 279.432,248.315 278.963,249.116C278.494,249.917 277.867,250.514 277.082,250.909C276.297,251.303 275.396,251.5 274.381,251.5C272.639,251.5 271.225,250.936 270.139,249.807C269.053,248.678 268.51,247.247 268.51,245.512C268.51,243.754 269.061,242.319 270.162,241.206C271.264,240.092 272.701,239.536 274.475,239.536C275.084,239.536 275.697,239.614 276.314,239.77C276.932,239.926 277.443,240.125 277.85,240.368C278.326,240.649 278.564,240.997 278.564,241.411C278.564,241.692 278.475,241.93 278.295,242.125C278.115,242.321 277.889,242.418 277.615,242.418C277.365,242.418 277.014,242.293 276.561,242.043C276.021,241.731 275.326,241.575 274.475,241.575C273.318,241.575 272.398,241.936 271.715,242.659C271.031,243.381 270.689,244.34 270.689,245.536C270.689,246.715 271.02,247.67 271.68,248.401C272.34,249.131 273.232,249.497 274.357,249.497C275.24,249.497 275.973,249.278 276.555,248.84C277.137,248.403 277.467,247.731 277.545,246.825L275.037,246.825C274.732,246.825 274.486,246.731 274.299,246.543C274.111,246.356 274.018,246.11 274.018,245.805C274.018,245.5 274.111,245.254 274.299,245.067C274.486,244.879 274.732,244.786 275.037,244.786L278.646,244.786L278.646,244.774ZM276.701,241.329C276.795,241.375 276.893,241.426 276.994,241.481C277.096,241.536 277.172,241.579 277.223,241.61C277.273,241.641 277.33,241.667 277.393,241.686C277.455,241.706 277.518,241.715 277.58,241.715C277.666,241.715 277.738,241.682 277.797,241.616C277.855,241.549 277.885,241.461 277.885,241.352C277.885,241.227 277.828,241.122 277.715,241.036C277.602,240.95 277.393,240.836 277.088,240.696C276.322,240.36 275.455,240.192 274.486,240.192C272.924,240.192 271.658,240.692 270.689,241.692C269.721,242.692 269.236,243.961 269.236,245.5C269.236,245.625 269.273,245.723 269.348,245.793C269.422,245.864 269.51,245.899 269.611,245.899C269.721,245.899 269.812,245.864 269.887,245.793C269.961,245.723 269.998,245.625 269.998,245.5C269.998,244.125 270.402,243.008 271.211,242.149C272.02,241.29 273.111,240.86 274.486,240.86C275.307,240.883 276.045,241.04 276.701,241.329Z" style="fill-rule:nonzero;"/>
        <path d="M286.064,251.5C285.588,251.5 285.252,251.27 285.057,250.809L280.978,241.024C280.916,240.875 280.885,240.715 280.885,240.543C280.885,240.262 280.982,240.024 281.178,239.829C281.373,239.633 281.631,239.536 281.951,239.536C282.443,239.536 282.783,239.762 282.971,240.215L286.146,247.879L289.287,240.215C289.475,239.762 289.799,239.536 290.26,239.536C290.588,239.536 290.842,239.633 291.021,239.829C291.201,240.024 291.291,240.262 291.291,240.543C291.291,240.692 291.26,240.852 291.197,241.024L287.119,250.809C286.908,251.27 286.557,251.5 286.064,251.5ZM290.541,240.766C290.572,240.68 290.588,240.602 290.588,240.532C290.588,240.336 290.486,240.239 290.283,240.239C290.119,240.239 289.994,240.34 289.908,240.543L285.9,250.258C285.869,250.344 285.853,250.43 285.853,250.516C285.853,250.711 285.955,250.809 286.158,250.809C286.322,250.809 286.447,250.708 286.533,250.504L290.541,240.766Z" style="fill-rule:nonzero;"/>
    </g>
    <g transform="matrix(1,0,0,1,-130,-519.704)">
        <text x="273.899px" y="694.514px" style="font-family:'sncf_traverse_20220327v1.ttf';font-size:120px;">@SK</text>
    </g>
</svg>
