<?xml version="1.0" encoding="UTF-8" standalone="no"?>
<!DOCTYPE svg PUBLIC "-//W3C//DTD SVG 1.1//EN" "http://www.w3.org/Graphics/SVG/1.1/DTD/svg11.dtd">
<svg width="100%" height="100%" viewBox="0 0 26 25" version="1.1" xmlns="http://www.w3.org/2000/svg" xmlns:xlink="http://www.w3.org/1999/xlink" xml:space="preserve" style="fill-rule:evenodd;clip-rule:evenodd;stroke-linejoin:round;stroke-miterlimit:2;">
    <g transform="matrix(1,0,0,1,-7.5,-0.5)">
        <path d="M20.5,12.94C17.09,12.94 14.05,10.43 14.05,6.56C14.05,3.57 16.63,0.5 20.38,0.5C24.05,0.5 26.74,3.47 26.74,6.71C26.74,10.46 23.57,12.94 20.5,12.94ZM7.5,25.5C7.79,22.74 8.19,18.97 8.94,17.06C9.28,16.2 9.78,15.58 10.59,15.06C11.12,14.72 12.98,13.8 13.33,13.66C13.93,13.38 14.55,13.24 15.08,13.66C18.24,16.13 22.62,16.06 25.82,13.67C26.2,13.33 26.79,13.42 27.18,13.55C27.79,13.76 29.76,14.79 30.13,15C31.22,15.62 31.8,16.47 32.24,18.05C32.8,20.18 33.12,22.89 33.5,25.5L7.5,25.5Z" style="fill:rgb(80,80,80);fill-rule:nonzero;"/>
    </g>
</svg>
