<?xml version="1.0" encoding="UTF-8" standalone="no"?>
<!DOCTYPE svg PUBLIC "-//W3C//DTD SVG 1.1//EN" "http://www.w3.org/Graphics/SVG/1.1/DTD/svg11.dtd">
<svg width="100%" height="100%" viewBox="0 0 40 30" version="1.1" xmlns="http://www.w3.org/2000/svg" xmlns:xlink="http://www.w3.org/1999/xlink" xml:space="preserve" style="fill-rule:evenodd;clip-rule:evenodd;stroke-linejoin:round;stroke-miterlimit:2;">
    <g transform="matrix(1,0,0,1,-0.5,-160.5)">
        <path d="M23.6,171.47L23.6,169.74L34.87,169.74L34.87,171.47L23.6,171.47ZM23.6,176.66L23.6,174.93L34.87,174.93L34.87,176.66L23.6,176.66ZM23.6,181.85L23.6,180.12L34.87,180.12L34.87,181.85L23.6,181.85ZM13.77,175.15C11.78,175.15 10.02,173.31 10.02,171C10.02,168.66 11.65,166.73 13.77,166.73C15.94,166.73 17.45,168.85 17.45,170.93C17.45,173.58 15.46,175.15 13.77,175.15ZM6.07,184.15C6.22,182.41 6.39,180.11 6.82,178.28C7.07,177.36 7.45,176.92 7.93,176.58L9.28,175.75C9.66,175.55 10.03,175.28 10.51,175.58C12.09,176.86 14.41,177.59 16.9,175.61C17.24,175.35 17.51,175.44 17.78,175.58L19.37,176.5C19.97,176.86 20.3,177.38 20.5,177.97C20.91,179.08 21.16,182.12 21.28,184.15L6.07,184.15ZM2.19,188.77L38.81,188.77L38.81,162.23L2.19,162.23L2.19,188.77ZM0.5,190.5L0.5,160.5L40.5,160.5L40.5,190.5L0.5,190.5Z" style="fill:rgb(80,80,80);fill-rule:nonzero;"/>
    </g>
</svg>
