<?xml version="1.0" encoding="UTF-8" standalone="no"?>
<!DOCTYPE svg PUBLIC "-//W3C//DTD SVG 1.1//EN" "http://www.w3.org/Graphics/SVG/1.1/DTD/svg11.dtd">
<svg width="100%" height="100%" viewBox="0 0 30 30" version="1.1" xmlns="http://www.w3.org/2000/svg" xmlns:xlink="http://www.w3.org/1999/xlink" xml:space="preserve" style="fill-rule:evenodd;clip-rule:evenodd;stroke-linejoin:round;stroke-miterlimit:2;">
    <g transform="matrix(1,0,0,1,-5.5,-0.5)">
        <path d="M22.33,22.02L20.78,21.38C20.55,21.25 20.46,21.08 20.55,20.82L21.14,19.42C21.27,19.2 21.44,19.08 21.7,19.18L23.16,19.91C23.62,19.37 24.12,18.83 24.69,18.36L24.05,16.81C24,16.63 23.98,16.45 24.25,16.27L25.71,15.66C25.99,15.57 26.15,15.69 26.25,15.86L26.9,17.44C27.55,17.31 28.2,17.25 28.96,17.47L29.62,15.87C29.76,15.64 29.95,15.58 30.16,15.66L31.62,16.28C31.86,16.42 31.88,16.6 31.82,16.79L31.18,18.38C31.74,18.83 32.27,19.3 32.69,19.85L34.25,19.22C34.53,19.14 34.7,19.25 34.8,19.46L35.41,20.9C35.45,21.11 35.41,21.28 35.2,21.41L33.61,22.04C33.68,22.66 33.68,23.43 33.6,24.11L35.2,24.75C35.41,24.88 35.5,25.05 35.43,25.28L34.86,26.63C34.74,26.8 34.59,26.89 34.36,26.83L32.76,26.19C32.33,26.76 31.81,27.27 31.22,27.71L31.85,29.26C31.95,29.51 31.82,29.72 31.67,29.8L30.13,30.43C29.92,30.47 29.74,30.45 29.65,30.2L29,28.61C28.42,28.77 27.68,28.81 26.94,28.63L26.3,30.19C26.19,30.35 26.08,30.5 25.79,30.43L24.29,29.81C24.08,29.66 23.98,29.47 24.12,29.22L24.83,27.81C24.2,27.34 23.67,26.83 23.26,26.3L21.73,26.92C21.49,27.02 21.3,26.96 21.15,26.73L20.54,25.28C20.48,25.09 20.53,24.86 20.76,24.75L22.34,24.07C22.28,23.39 22.27,22.7 22.33,22.02ZM24.04,23.01C24.04,25.43 26.05,26.93 28.01,26.93C30.14,26.93 31.9,25.14 31.9,23.05C31.9,20.8 30.01,19.13 28.02,19.13C26.08,19.13 24.04,20.58 24.04,23.01ZM17.22,13.11C14.15,13.11 11.41,10.56 11.41,6.65C11.41,3.61 13.73,0.5 17.11,0.5C20.42,0.5 22.85,3.51 22.85,6.79C22.85,10.59 19.99,13.11 17.22,13.11ZM5.5,25.83C5.76,23.04 6.12,19.22 6.8,17.29C7.11,16.41 7.56,15.78 8.29,15.26C8.76,14.91 10.44,13.98 10.75,13.83C11.29,13.55 11.85,13.41 12.33,13.83C15.18,16.34 19.13,16.27 22.02,13.84C22.36,13.5 22.89,13.59 23.24,13.73C23.6,13.86 24.45,14.34 25.11,14.71L23.81,15.26C22.97,15.68 22.76,16.59 23.06,17.28L23.39,18.03L22.97,18.45L22.14,18.09C21.45,17.83 20.6,18.09 20.21,18.88L19.56,20.42C19.27,21.25 19.68,22.06 20.34,22.35L21.21,22.73L21.21,23.33L20.36,23.7C19.53,24.09 19.3,24.99 19.57,25.67L19.64,25.83L5.5,25.83Z" />
    </g>
</svg>
